<?xml version="1.0" encoding="UTF-8"?>
<!DOCTYPE svg PUBLIC "-//W3C//DTD SVG 1.1//EN" "http://www.w3.org/Graphics/SVG/1.1/DTD/svg11.dtd">
<!-- Creator: CorelDRAW 2021 (64 Bit) -->
<svg xmlns="http://www.w3.org/2000/svg" xml:space="preserve" width="211.667mm" height="211.667mm" version="1.1" style="shape-rendering:geometricPrecision; text-rendering:geometricPrecision; image-rendering:optimizeQuality; fill-rule:evenodd; clip-rule:evenodd"
viewBox="0 0 21166.66 21166.66"
 xmlns:xlink="http://www.w3.org/1999/xlink"
 xmlns:xodm="http://www.corel.com/coreldraw/odm/2003">
 <defs>
  <style type="text/css">
   <![CDATA[
    .fil0 {fill:#FEFEFE}
   ]]>
  </style>
 </defs>
 <g id="Camada_x0020_1">
  <metadata id="CorelCorpID_0Corel-Layer"/>
  <g id="_1991746940928">
   <path class="fil0" d="M16039.54 13701.71c-503.27,-774.77 852.53,-3558.29 1528.34,-3084.01 417.18,292.78 -181.82,1546.54 -341.35,1817.54 -248.69,422.48 -672.79,1286.68 -1186.99,1266.47zm-2723.07 -2850.54c-82.38,256.11 -436.64,308.57 -484.92,899.84 -58.99,722.11 419.56,505.3 196.06,1071.04 -178.34,451.53 -807.57,1815.39 -1332.98,1466.87 -720.21,-477.73 864.96,-4693.95 1621.84,-3437.75zm-6031.71 3461.63c-534.42,-976.68 627.55,-4146.91 1581.55,-3583.65 105.54,543.43 -309.82,162.61 -422.05,952.52 -100.27,705.87 360.69,585.2 187.58,1121.29 -189.4,586.49 -687.43,1618.23 -1347.08,1509.84zm10807.71 -4262.43c-476.3,-215.49 -690.42,-441.96 -1388.99,-194.7 -1685.7,596.76 -1149.46,2523.39 -2806.23,2586.55 121.07,-744.29 311.87,-1529.41 -91.46,-2203.29 -322.7,-539.21 -1144.44,-651.32 -1783.97,-259.64 -1388.83,850.52 -958.97,2412.9 -2507.58,2474.63 -1.2,-377.49 666.02,-2732.78 -1134.7,-2704.12 -2067.77,32.92 -3273.3,4725.56 -1251.99,5030.24 1116.39,168.26 1973.23,-1133.14 2213.33,-1996.22 692.16,-119.95 670.44,-180.53 1198.98,-347.9 -43.9,604.54 -95.74,1235 157.51,1729.92 443.47,866.61 1583.41,876.6 2401.2,-151.42 332.62,-418.13 414.33,-817.93 686.51,-1234.22 574,-102.17 589.2,-102.09 1033.14,-293.81 8.06,786.47 -166.53,1804.91 677.88,2001.82 918.54,214.17 1312.77,-670.07 1682.93,-1103.46 47.02,555.77 -82.02,1205.13 484.08,1368.33 704.14,203.03 1084.04,-111.41 1376.17,-502.31 285.67,-382.27 1340.43,-2116.68 1247.58,-2563.7 -493.94,91.18 -1071.86,2539.79 -2011.06,2807.8 -69.29,-1746.24 1853.37,-5694.51 1868.46,-6462.25 -732.81,-479.13 -1147.27,-425.19 -1422.31,273.77 -194.41,494.05 -518.63,1264.37 -629.48,1743.98z"/>
   <path class="fil0" d="M427.74 6898.06c-297.45,1159 -8.67,1509.78 1058.34,1537.77 900.54,23.66 1626.55,-276.79 2418.72,-307.67l-988.8 2812.89c-1605.63,215.02 -1537.44,-102.14 -2023.77,-104.69 -150.21,1193.21 755.74,1005.4 1698.27,1139.99 -373.94,1587.66 -1486.5,3846.01 334.35,3495.37 159.05,-361.53 606.39,-2906.22 1040.03,-3624.33 528.51,-63.71 1264.73,-87.48 1638.49,-279.07 64.19,-1200.79 -601.4,-909.72 -1258.51,-853.98 106.29,-647.65 748.67,-1839.15 692.69,-2379.09 -130.23,-83.25 -351.62,-186.71 -513.82,-298.57 402.8,-207.74 2731.27,-480 3176.16,-210.06 364.62,221.23 64.53,550.68 234.05,822.6 382.7,-100.57 518.63,-591.13 513.65,-905.69 -23.12,-1465.86 -2050.55,-1143.15 -3003.72,-993.7 -964.53,151.28 -2871.29,435.35 -3882.49,405.48 -223.47,-6.58 -464.99,-24.16 -652.91,-96.99 -323.85,-125.52 -176.78,-210.85 -480.73,-160.26z"/>
   <path class="fil0" d="M15702.85 9389.16c-303.06,415.22 -2609.64,-358.56 -2950.44,-476.19 -440.75,-152.16 -2960.56,-1100.56 -2812.72,-1540.97 195.31,-581.82 5631.31,1159.87 5763.16,2017.16zm-1014.92 -2385.63c-182.29,231.83 -376.23,410.77 -603.89,383.18 -363.86,-44.13 -259.09,-424.83 -94.78,-647.7 530.38,-719.44 1162.06,-324.83 698.67,264.52zm892.38 -1238.17c-427.18,660.17 -1029.73,450.59 -658.05,-118.93 383.75,-588.02 1012.8,-429.29 658.05,118.93zm-1043.85 266.06c-78.83,38.26 -6.49,23.09 -121.63,33.19 -126.2,11.05 -174.22,-30.52 -380.83,82.42 -489.2,267.37 -930.07,993.84 -187.17,1362.82 872.87,433.54 1490.42,-387.97 1391.1,-877.04 -29.7,-146.22 -62.3,-111.69 -108.57,-233.7 816.29,-19.07 1206.31,-897.22 599.08,-1230.91 -366.87,-201.61 -662.97,-161.51 -897.93,2.18 -276.13,192.37 -491.51,617.82 -294.05,861.04zm-1448.47 -876.1c198.48,-420.08 610.04,-594.32 940,-491.3 423.41,132.21 224.92,551.81 -332.68,740.77 -904.16,306.42 -1793.67,199.31 -2028.5,671.12 -104.94,7.6 -158.45,-36.05 -229.03,56.18 -286.94,375.03 467.24,475.26 537.5,496.31 211.47,63.35 424.65,128.67 633.77,220.69 188.66,83.02 439.16,305.63 509.5,324.49 185.34,-303.88 155.15,-466.93 -117.81,-632.18 -276.57,-167.42 -529.71,-219.18 -811.91,-328.6 91.08,-56.17 1057.76,-212.49 1257.43,-265.99 382.46,-102.47 878.9,-179.96 1041.94,-785.61 131.84,-489.7 -454.64,-864.39 -942.56,-838.83 -191.25,10.03 -450.45,121.52 -594.23,257.2 -271.56,256.26 -180.46,457.26 136.58,575.75zm-672.03 -933.04c-42.17,313.06 -48.32,857.59 -111.12,1111.37 -93.27,-897.98 -24.52,-928.95 107.97,-1673.15 35.38,-198.73 36.95,-406.05 72.31,-581.11 85.57,252.76 -25.1,815.82 -69.16,1142.89zm3559.64 2599.79c83.53,-316.91 370.2,-540.93 563.48,-698.12 593.4,-482.63 1384.42,-1493.04 1894.01,-1513.19 -770.58,405.77 -667.96,476.04 -1251.3,1050.38 -210.97,207.71 -405.16,370.01 -623.23,564.74 -105.44,94.17 -206.28,183.93 -309.51,286.76 -86.53,86.2 -196.54,244.36 -273.45,309.43zm2804.9 -984.62c433.45,-940.68 434.99,-1469.02 -235.25,-2061.53 -342.27,-302.57 -671.97,-434.69 -1109.63,-600.17 -417.07,-157.69 -776.55,-381.22 -1132.71,-605.85 -1050.02,-662.23 -1238.83,-547.22 -2313.54,-671.5 -391.6,-45.28 -752.74,-172.39 -1149.24,-210.6 -139.3,-13.43 -917.98,-59.57 -1078.77,-4.95 306.91,143.48 422.5,302.45 528.24,564.44 -147.66,-179.43 -225.09,-328.13 -511.34,-452.16 -475.33,-205.99 -1073.12,151.28 -1436.15,291.43l-1340.77 485.74c138.95,205.47 275.57,379.69 158.54,685.73 -67.05,-165.71 -30.04,-451.27 -306.56,-507.38 -178.98,27.14 -191.41,649.58 -504.2,840.36 83.01,-112.74 135.65,-146.48 185.8,-307.27 -147.27,39.54 -436.06,271.85 -547.2,429.67 -200.76,285.06 -118.59,491.75 59.51,682.03 446.7,477.26 1170.54,515.91 1530.65,643 -278.55,16.84 -613.69,-94.04 -933.51,-210.09 155.67,409.63 1187.3,709.67 1641.96,884.38 12.94,291.51 27.31,245.01 -117.96,579.35 -93.17,214.44 -384.19,754.63 -420.47,909.64 -55.19,235.7 171.23,412.37 374.5,579 1265.59,1037.44 3393.89,1592.59 4893.67,1882.59 1193.72,230.82 817.03,-393.6 1210.25,-1551.33 54.59,-160.75 155.16,-184.59 175.69,-393.78 30.44,-309.88 -299.98,-433.33 467.77,-549.42 423.81,-64.09 1180.64,-276.13 1480.96,-535.26l-352.78 74.32c147.45,-16.61 467.36,-207.06 634.62,-376.85 181.93,-184.7 403.85,-559.89 359.53,-824.72 -99.31,194.6 -105.4,259.97 -211.61,331.18z"/>
   <path class="fil0" d="M10191.48 15785.77c-183.57,-131.99 -285.1,-227.34 -532.04,-342.98 -899.81,-421.39 -1820.58,32.01 -2516.47,574.24 -451.09,351.49 -886.09,908.28 -1325.4,1214.42 -760.3,529.83 -1753.7,828.8 -2378.24,-12 -266.4,-358.63 -281.25,-944.27 76.58,-1204.14 381.23,-276.86 926.22,23.26 1137.52,287.96 -149.23,-1117.43 -1926.49,-1091.6 -2123.65,367.32 -144.5,1069.2 698.85,2040.48 1599.21,2452.76 900.72,412.45 2616.37,239.72 3548.07,-57.67 1226.12,-391.37 1668.26,-789.07 2514.42,-1528.65 170.94,128.01 348.94,324.72 544.61,481.17 583.48,466.54 1246.13,816.95 1990.88,1052.02 956.58,301.93 2645.49,459.41 3547.59,46.43 531,-243.09 830.97,-523.49 1125.8,-912.27 717.87,-946.67 656.88,-2382.55 -493.6,-2653.91 -662.36,-156.22 -1048.2,222.93 -1176.21,754.35 242.68,-283.91 783.75,-568.6 1151.36,-278.37 617.66,487.65 103.69,1869.87 -1147.39,1698.55 -450.72,-61.71 -884.49,-279.27 -1181.84,-507.31 -596.48,-457.43 -466.55,-440.38 -885.1,-834.62 -832.49,-784.13 -2095.62,-1565.56 -3233.11,-778.37 -91.24,63.14 -152.13,133.08 -242.99,181.07z"/>
  </g>
 </g>
</svg>
